<svg xmlns="http://www.w3.org/2000/svg" width="1000" height="620" viewBox="0 0 1000 620">
  <rect width="1000" height="620" fill="#ffffff"/>

  <text x="500" y="55" text-anchor="middle" font-family="Arial, sans-serif" font-size="30" font-weight="700" fill="#1f2937">
    Excel Data Validator
  </text>

  <text x="500" y="90" text-anchor="middle" font-family="Arial, sans-serif" font-size="16" fill="#4b5563">
    Reusable Excel VBA validation workflow
  </text>

  <rect x="300" y="125" width="400" height="80" rx="16" fill="#eef2ff" stroke="#6366f1" stroke-width="2"/>
  <text x="500" y="155" text-anchor="middle" font-family="Arial, sans-serif" font-size="20" font-weight="700" fill="#312e81">
    Input Excel Worksheet
  </text>
  <text x="500" y="182" text-anchor="middle" font-family="Arial, sans-serif" font-size="14" fill="#4338ca">
    Customer / Product / Research / Inventory
  </text>

  <line x1="500" y1="205" x2="500" y2="255" stroke="#6b7280" stroke-width="3"/>
  <polygon points="500,265 492,250 508,250" fill="#6b7280"/>

  <rect x="285" y="270" width="430" height="75" rx="16" fill="#ecfeff" stroke="#0891b2" stroke-width="2"/>
  <text x="500" y="315" text-anchor="middle" font-family="Arial, sans-serif" font-size="20" font-weight="700" fill="#164e63">
    VBA Validation Modules
  </text>

  <line x1="500" y1="345" x2="500" y2="390" stroke="#6b7280" stroke-width="3"/>
  <line x1="175" y1="390" x2="825" y2="390" stroke="#6b7280" stroke-width="3"/>
  <line x1="175" y1="390" x2="175" y2="420" stroke="#6b7280" stroke-width="3"/>
  <line x1="390" y1="390" x2="390" y2="420" stroke="#6b7280" stroke-width="3"/>
  <line x1="610" y1="390" x2="610" y2="420" stroke="#6b7280" stroke-width="3"/>
  <line x1="825" y1="390" x2="825" y2="420" stroke="#6b7280" stroke-width="3"/>

  <rect x="50" y="420" width="250" height="70" rx="14" fill="#fef3c7" stroke="#d97706" stroke-width="2"/>
  <text x="175" y="450" text-anchor="middle" font-family="Arial, sans-serif" font-size="18" font-weight="700" fill="#78350f">
    Missing Field Check
  </text>
  <text x="175" y="473" text-anchor="middle" font-family="Arial, sans-serif" font-size="13" fill="#92400e">
    Name / Email / required fields
  </text>

  <rect x="270" y="420" width="250" height="70" rx="14" fill="#f0fdf4" stroke="#16a34a" stroke-width="2"/>
  <text x="395" y="450" text-anchor="middle" font-family="Arial, sans-serif" font-size="18" font-weight="700" fill="#14532d">
    Email Validation
  </text>
  <text x="395" y="473" text-anchor="middle" font-family="Arial, sans-serif" font-size="13" fill="#166534">
    Format / domain checks
  </text>

  <rect x="490" y="420" width="250" height="70" rx="14" fill="#fdf2f8" stroke="#db2777" stroke-width="2"/>
  <text x="615" y="450" text-anchor="middle" font-family="Arial, sans-serif" font-size="18" font-weight="700" fill="#831843">
    Duplicate Detection
  </text>
  <text x="615" y="473" text-anchor="middle" font-family="Arial, sans-serif" font-size="13" fill="#9d174d">
    CustomerID / records
  </text>

  <rect x="710" y="420" width="250" height="70" rx="14" fill="#eff6ff" stroke="#2563eb" stroke-width="2"/>
  <text x="835" y="450" text-anchor="middle" font-family="Arial, sans-serif" font-size="18" font-weight="700" fill="#1e3a8a">
    Validation Report
  </text>
  <text x="835" y="473" text-anchor="middle" font-family="Arial, sans-serif" font-size="13" fill="#1d4ed8">
    Summary / CSV export
  </text>

  <line x1="175" y1="490" x2="175" y2="520" stroke="#6b7280" stroke-width="3"/>
  <line x1="390" y1="490" x2="390" y2="520" stroke="#6b7280" stroke-width="3"/>
  <line x1="610" y1="490" x2="610" y2="520" stroke="#6b7280" stroke-width="3"/>
  <line x1="825" y1="490" x2="825" y2="520" stroke="#6b7280" stroke-width="3"/>
  <line x1="175" y1="520" x2="825" y2="520" stroke="#6b7280" stroke-width="3"/>
  <line x1="500" y1="520" x2="500" y2="540" stroke="#6b7280" stroke-width="3"/>

  <rect x="300" y="540" width="400" height="55" rx="16" fill="#f3f4f6" stroke="#374151" stroke-width="2"/>
  <text x="500" y="563" text-anchor="middle" font-family="Arial, sans-serif" font-size="18" font-weight="700" fill="#111827">
    Highlighted Worksheet &amp; CSV Report
  </text>
  <text x="500" y="584" text-anchor="middle" font-family="Arial, sans-serif" font-size="13" fill="#4b5563">
    Clean, reviewed and exportable validation results
  </text>
</svg>
